# xmcd
# 
# Track frame offsets:
#     150
#     17887
#     34325
#     49522
#     66965
#     83212
#     98010
#     109212
#     125107
#     140727
# 
# Disc length: 2116
# 
# Revision: 0
# Processed by: cddbd v1.5.2PL0 Copyright (c) Steve Scherf et al.
# Submitted via: fre:ac v1.0.17
# 
DISCID=8e08420a
DTITLE=Eddy Mitchell - Racines
DYEAR=1984
DGENRE=Rock and Roll
TTITLE0=Comme quand j'étais môme
TTITLE1=Mon clip préféré
TTITLE2=Le blues du blanc
TTITLE3=L'idole chante au dessert
TTITLE4=Rupture en V.H.S.
TTITLE5=Nashville ou Belleville?
TTITLE6=Ciné, rock et bandes dessinées (hotdamn)
TTITLE7=Pourquoi m'laisse-tu pas tranquille, Lucille? (Lucille)
TTITLE8=Un chèque en bois... C'est drôle!
TTITLE9=Mes souvenirs, mes seize ans
EXTD=
EXTT0=
EXTT1=
EXTT2=
EXTT3=
EXTT4=
EXTT5=
EXTT6=
EXTT7=
EXTT8=
EXTT9=
PLAYORDER=
